<?xml version="1.0" encoding="UTF-8"?>
<svg xmlns="http://www.w3.org/2000/svg" xmlns:xlink="http://www.w3.org/1999/xlink" width="51px" height="57px" viewBox="0 0 51 57" version="1.1">
<g id="surface1">
<path style=" stroke:none;fill-rule:nonzero;fill:rgb(36.078431%,55.294118%,73.72549%);fill-opacity:1;" d="M 50.914062 16.765625 C 50.914062 15.808594 50.710938 14.964844 50.289062 14.242188 C 49.882812 13.527344 49.269531 12.929688 48.449219 12.457031 C 41.671875 8.578125 34.886719 4.703125 28.109375 0.820312 C 26.285156 -0.230469 24.511719 -0.191406 22.699219 0.871094 C 20 2.453125 6.496094 10.140625 2.464844 12.457031 C 0.808594 13.40625 0.00390625 14.867188 0.00390625 16.761719 C 0 24.570312 0.00390625 32.378906 0 40.1875 C 0 41.125 0.199219 41.949219 0.59375 42.667969 C 1.003906 43.398438 1.625 44.015625 2.464844 44.496094 C 6.492188 46.8125 20 54.5 22.699219 56.082031 C 24.511719 57.144531 26.285156 57.183594 28.109375 56.132812 C 34.886719 52.25 41.671875 48.375 48.449219 44.496094 C 49.289062 44.011719 49.914062 43.398438 50.324219 42.664062 C 50.71875 41.949219 50.917969 41.121094 50.917969 40.183594 C 50.917969 40.183594 50.917969 24.574219 50.914062 16.765625 "/>
<path style=" stroke:none;fill-rule:nonzero;fill:rgb(10.196078%,27.45098%,45.490196%);fill-opacity:1;" d="M 25.535156 28.402344 L 0.59375 42.667969 C 1.003906 43.398438 1.625 44.015625 2.464844 44.496094 C 6.492188 46.8125 20 54.5 22.699219 56.082031 C 24.511719 57.144531 26.285156 57.183594 28.109375 56.132812 C 34.886719 52.25 41.671875 48.375 48.449219 44.496094 C 49.289062 44.011719 49.914062 43.398438 50.324219 42.664062 L 25.535156 28.402344 "/>
<path style=" stroke:none;fill-rule:nonzero;fill:rgb(10.196078%,27.45098%,45.490196%);fill-opacity:1;" d="M 18.148438 32.628906 C 19.597656 35.144531 22.328125 36.839844 25.460938 36.839844 C 28.609375 36.839844 31.351562 35.121094 32.796875 32.574219 L 25.535156 28.402344 L 18.148438 32.628906 "/>
<path style=" stroke:none;fill-rule:nonzero;fill:rgb(10.588235%,34.901961%,55.686275%);fill-opacity:1;" d="M 50.914062 16.765625 C 50.914062 15.808594 50.710938 14.964844 50.289062 14.242188 L 25.535156 28.402344 L 50.324219 42.664062 C 50.71875 41.949219 50.917969 41.121094 50.917969 40.183594 C 50.917969 40.183594 50.917969 24.574219 50.914062 16.765625 "/>
<path style=" stroke:none;fill-rule:nonzero;fill:rgb(100%,100%,100%);fill-opacity:1;" d="M 49.550781 29.417969 L 47.613281 29.417969 L 47.613281 31.34375 L 45.675781 31.34375 L 45.675781 29.417969 L 43.742188 29.417969 L 43.742188 27.492188 L 45.675781 27.492188 L 45.675781 25.574219 L 47.613281 25.574219 L 47.613281 27.492188 L 49.550781 27.492188 L 49.550781 29.417969 M 42.484375 29.417969 L 40.550781 29.417969 L 40.550781 31.34375 L 38.609375 31.34375 L 38.609375 29.417969 L 36.671875 29.417969 L 36.671875 27.492188 L 38.609375 27.492188 L 38.609375 25.574219 L 40.550781 25.574219 L 40.550781 27.492188 L 42.484375 27.492188 L 42.484375 29.417969 "/>
<path style=" stroke:none;fill-rule:nonzero;fill:rgb(100%,100%,100%);fill-opacity:1;" d="M 32.796875 32.574219 C 31.351562 35.121094 28.609375 36.839844 25.460938 36.839844 C 22.328125 36.839844 19.597656 35.144531 18.148438 32.628906 C 17.417969 31.363281 17.039062 29.929688 17.039062 28.476562 C 17.039062 23.855469 20.804688 20.109375 25.460938 20.109375 C 28.566406 20.109375 31.28125 21.789062 32.738281 24.28125 L 40.097656 20.070312 C 37.175781 15.054688 31.710938 11.679688 25.460938 11.679688 C 16.121094 11.679688 8.550781 19.199219 8.550781 28.476562 C 8.550781 31.519531 9.363281 34.371094 10.789062 36.832031 C 13.707031 41.875 19.183594 45.269531 25.460938 45.269531 C 31.742188 45.269531 37.230469 41.863281 40.144531 36.804688 L 32.796875 32.574219 "/>
</g>
</svg>
