<?xml version="1.0" encoding="UTF-8"?>
<svg xmlns="http://www.w3.org/2000/svg" xmlns:xlink="http://www.w3.org/1999/xlink" width="50px" height="56px" viewBox="0 0 50 56" version="1.1">
<g id="surface1">
<path style=" stroke:none;fill-rule:nonzero;fill:rgb(63.137255%,47.45098%,86.27451%);fill-opacity:1;" d="M 49.777344 16.578125 C 49.777344 15.644531 49.578125 14.820312 49.171875 14.113281 C 48.773438 13.417969 48.179688 12.835938 47.378906 12.375 C 40.78125 8.589844 34.175781 4.8125 27.582031 1.023438 C 25.804688 0 24.078125 0.0390625 22.3125 1.074219 C 19.6875 2.617188 6.539062 10.113281 2.621094 12.375 C 1.007812 13.304688 0.222656 14.726562 0.222656 16.574219 C 0.21875 24.191406 0.222656 31.808594 0.21875 39.425781 C 0.21875 40.335938 0.410156 41.144531 0.800781 41.839844 C 1.195312 42.554688 1.800781 43.15625 2.621094 43.625 C 6.539062 45.886719 19.6875 53.382812 22.3125 54.925781 C 24.078125 55.964844 25.804688 56 27.582031 54.976562 C 34.175781 51.1875 40.78125 47.410156 47.382812 43.625 C 48.199219 43.152344 48.804688 42.554688 49.199219 41.839844 C 49.585938 41.140625 49.78125 40.332031 49.78125 39.421875 C 49.78125 39.421875 49.78125 24.195312 49.777344 16.578125 "/>
<path style=" stroke:none;fill-rule:nonzero;fill:rgb(15.686275%,0%,40.784314%);fill-opacity:1;" d="M 25.074219 27.925781 L 0.800781 41.839844 C 1.195312 42.554688 1.800781 43.15625 2.621094 43.625 C 6.539062 45.886719 19.6875 53.382812 22.3125 54.925781 C 24.078125 55.964844 25.804688 56 27.582031 54.976562 C 34.175781 51.1875 40.78125 47.410156 47.382812 43.625 C 48.199219 43.152344 48.804688 42.554688 49.199219 41.839844 Z M 25.074219 27.925781 "/>
<path style=" stroke:none;fill-rule:nonzero;fill:rgb(22.352941%,0%,56.862745%);fill-opacity:1;" d="M 49.777344 16.578125 C 49.777344 15.644531 49.578125 14.820312 49.171875 14.113281 L 25.074219 27.925781 L 49.199219 41.839844 C 49.585938 41.140625 49.78125 40.332031 49.78125 39.421875 C 49.78125 39.421875 49.78125 24.195312 49.777344 16.578125 "/>
<path style=" stroke:none;fill-rule:nonzero;fill:rgb(100%,100%,100%);fill-opacity:1;" d="M 39.367188 22.722656 L 39.367188 25.324219 L 41.980469 25.324219 L 41.980469 22.722656 L 43.289062 22.722656 L 43.289062 25.324219 L 45.902344 25.324219 L 45.902344 26.625 L 43.289062 26.625 L 43.289062 29.226562 L 45.902344 29.226562 L 45.902344 30.527344 L 43.289062 30.527344 L 43.289062 33.128906 L 41.980469 33.128906 L 41.980469 30.527344 L 39.367188 30.527344 L 39.367188 33.128906 L 38.0625 33.128906 L 38.0625 30.527344 L 35.449219 30.527344 L 35.449219 29.226562 L 38.0625 29.226562 L 38.0625 26.625 L 35.449219 26.625 L 35.449219 25.324219 L 38.0625 25.324219 L 38.0625 22.722656 Z M 41.980469 26.625 L 39.367188 26.625 L 39.367188 29.226562 L 41.980469 29.226562 Z M 41.980469 26.625 "/>
<path style=" stroke:none;fill-rule:nonzero;fill:rgb(100%,100%,100%);fill-opacity:1;" d="M 25.128906 9.660156 C 31.945312 9.660156 37.894531 13.347656 41.082031 18.824219 L 41.050781 18.769531 L 33.03125 23.367188 C 31.453125 20.703125 28.554688 18.90625 25.234375 18.867188 L 25.128906 18.867188 C 20.0625 18.867188 15.957031 22.957031 15.957031 28 C 15.953125 29.589844 16.371094 31.152344 17.164062 32.53125 C 18.746094 35.277344 21.71875 37.132812 25.128906 37.132812 C 28.558594 37.132812 31.550781 35.253906 33.121094 32.476562 L 33.085938 32.542969 L 41.089844 37.160156 C 37.9375 42.589844 32.070312 46.265625 25.335938 46.335938 L 25.128906 46.339844 C 18.292969 46.339844 12.324219 42.632812 9.148438 37.125 C 7.59375 34.4375 6.707031 31.324219 6.707031 28 C 6.707031 17.871094 14.953125 9.660156 25.128906 9.660156 Z M 25.128906 9.660156 "/>
</g>
</svg>
