<?xml version="1.0" encoding="UTF-8"?>
<svg xmlns="http://www.w3.org/2000/svg" xmlns:xlink="http://www.w3.org/1999/xlink" width="64px" height="64px" viewBox="0 0 64 64" version="1.1">
<g id="surface1">
<path style=" stroke:none;fill-rule:nonzero;fill:rgb(0%,0%,0%);fill-opacity:1;" d="M 54.5625 35.273438 L 52.015625 33.382812 C 52.304688 31.425781 52.308594 29.453125 52.019531 27.511719 L 54.5625 25.628906 C 54.929688 25.355469 55.066406 24.863281 54.890625 24.4375 L 52.4375 18.511719 C 52.261719 18.089844 51.816406 17.839844 51.363281 17.90625 L 48.234375 18.371094 C 47.0625 16.792969 45.667969 15.402344 44.078125 14.222656 L 44.542969 11.085938 C 44.613281 10.632812 44.359375 10.1875 43.9375 10.011719 L 38.011719 7.558594 C 37.585938 7.382812 37.097656 7.519531 36.824219 7.886719 L 36.207031 8.714844 L 36.207031 3.140625 C 36.207031 1.410156 34.800781 0 33.070312 0 L 30.929688 0 C 29.199219 0 27.792969 1.410156 27.792969 3.140625 L 27.792969 8.714844 L 27.179688 7.886719 C 26.902344 7.519531 26.414062 7.382812 25.988281 7.558594 L 20.0625 10.011719 C 19.640625 10.1875 19.386719 10.632812 19.457031 11.085938 L 19.921875 14.214844 C 18.34375 15.386719 16.953125 16.78125 15.773438 18.371094 L 12.636719 17.90625 C 12.183594 17.835938 11.738281 18.089844 11.5625 18.511719 L 9.109375 24.4375 C 8.933594 24.863281 9.070312 25.351562 9.4375 25.628906 L 11.984375 27.515625 C 11.695312 29.476562 11.691406 31.445312 11.980469 33.390625 L 9.4375 35.269531 C 9.070312 35.546875 8.933594 36.035156 9.109375 36.460938 L 11.5625 42.386719 C 11.738281 42.808594 12.183594 43.0625 12.636719 42.992188 L 15.765625 42.527344 C 16.9375 44.105469 18.332031 45.496094 19.921875 46.675781 L 19.457031 49.8125 C 19.390625 50.265625 19.640625 50.710938 20.0625 50.886719 L 25.988281 53.339844 C 26.414062 53.515625 26.902344 53.378906 27.179688 53.011719 L 27.792969 52.183594 L 27.792969 52.308594 C 27.792969 52.40625 27.804688 52.503906 27.832031 52.597656 L 31.039062 63.285156 C 31.167969 63.710938 31.558594 64 32 64 C 32.441406 64 32.832031 63.710938 32.960938 63.285156 L 36.167969 52.597656 C 36.195312 52.503906 36.207031 52.40625 36.207031 52.308594 L 36.207031 52.183594 L 36.820312 53.011719 C 37.015625 53.273438 37.316406 53.417969 37.628906 53.417969 C 37.757812 53.417969 37.886719 53.390625 38.011719 53.339844 L 43.9375 50.886719 C 44.359375 50.710938 44.613281 50.269531 44.542969 49.8125 L 44.078125 46.683594 C 45.65625 45.511719 47.046875 44.117188 48.226562 42.527344 L 51.363281 42.992188 C 51.820312 43.0625 52.261719 42.808594 52.4375 42.386719 L 54.890625 36.460938 C 55.066406 36.035156 54.929688 35.546875 54.5625 35.273438 Z M 29.796875 3.140625 C 29.796875 2.511719 30.304688 2.003906 30.929688 2.003906 L 33.070312 2.003906 C 33.695312 2.003906 34.203125 2.511719 34.203125 3.140625 L 34.203125 5.34375 L 29.796875 5.34375 Z M 29.796875 7.347656 L 34.203125 7.347656 L 34.203125 10.339844 C 32.730469 10.175781 31.257812 10.175781 29.796875 10.335938 Z M 27.792969 37.96875 C 26.113281 37.027344 24.78125 35.542969 24.039062 33.746094 C 22.351562 29.671875 24.03125 25.03125 27.792969 22.929688 Z M 32 59.511719 L 30.140625 53.3125 L 33.859375 53.3125 Z M 34.203125 51.308594 L 29.796875 51.308594 L 29.796875 22.121094 C 31.273438 21.726562 32.792969 21.746094 34.203125 22.125 Z M 27.933594 20.636719 C 22.523438 22.878906 19.945312 29.101562 22.1875 34.515625 C 23.242188 37.0625 25.269531 39.109375 27.792969 40.203125 L 27.792969 42.636719 C 24.292969 41.4375 21.519531 38.839844 20.089844 35.382812 C 17.367188 28.816406 20.496094 21.257812 27.066406 18.539062 C 33.632812 15.816406 41.191406 18.945312 43.914062 25.515625 C 45.230469 28.699219 45.230469 32.203125 43.914062 35.382812 C 42.59375 38.566406 40.117188 41.042969 36.933594 42.363281 C 36.695312 42.460938 36.453125 42.550781 36.207031 42.636719 L 36.207031 40.199219 C 38.761719 39.097656 40.746094 37.085938 41.8125 34.515625 C 42.898438 31.894531 42.898438 29.007812 41.8125 26.382812 C 39.570312 20.972656 33.347656 18.394531 27.933594 20.636719 Z M 36.207031 37.96875 L 36.207031 22.9375 C 37.84375 23.847656 39.191406 25.292969 39.960938 27.152344 C 40.84375 29.277344 40.84375 31.621094 39.960938 33.746094 C 39.210938 35.558594 37.894531 37.027344 36.207031 37.96875 Z M 50.882812 40.894531 L 47.917969 40.453125 C 47.542969 40.398438 47.164062 40.5625 46.949219 40.875 C 45.707031 42.65625 44.1875 44.179688 42.425781 45.40625 C 42.113281 45.625 41.949219 46 42.007812 46.375 L 42.445312 49.335938 L 37.964844 51.191406 L 36.207031 48.816406 L 36.207031 44.742188 C 36.714844 44.589844 37.214844 44.414062 37.699219 44.214844 C 41.378906 42.691406 44.242188 39.828125 45.761719 36.152344 C 47.285156 32.472656 47.285156 28.425781 45.761719 24.75 C 42.621094 17.160156 33.886719 13.542969 26.296875 16.6875 C 18.710938 19.828125 15.09375 28.5625 18.234375 36.152344 C 19.976562 40.355469 23.445312 43.460938 27.789062 44.742188 L 27.789062 48.816406 L 26.03125 51.191406 L 21.554688 49.335938 L 21.996094 46.367188 C 22.050781 45.992188 21.886719 45.617188 21.574219 45.398438 C 19.792969 44.15625 18.269531 42.636719 17.042969 40.875 C 16.824219 40.5625 16.449219 40.398438 16.074219 40.457031 L 13.113281 40.894531 L 11.257812 36.417969 L 13.664062 34.636719 C 13.96875 34.410156 14.121094 34.027344 14.050781 33.652344 C 13.671875 31.542969 13.675781 29.386719 14.058594 27.25 C 14.125 26.875 13.976562 26.496094 13.667969 26.269531 L 11.257812 24.484375 L 13.113281 20.003906 L 16.082031 20.445312 C 16.457031 20.5 16.832031 20.339844 17.050781 20.027344 C 18.292969 18.242188 19.8125 16.71875 21.574219 15.492188 C 21.886719 15.277344 22.050781 14.898438 21.992188 14.523438 L 21.554688 11.566406 L 26.03125 9.710938 L 27.8125 12.113281 C 28.039062 12.417969 28.421875 12.570312 28.796875 12.503906 C 30.90625 12.125 33.0625 12.125 35.199219 12.507812 C 35.574219 12.578125 35.953125 12.425781 36.179688 12.121094 L 37.964844 9.710938 L 42.445312 11.566406 L 42.003906 14.53125 C 41.949219 14.910156 42.109375 15.285156 42.421875 15.5 C 44.207031 16.742188 45.730469 18.265625 46.957031 20.023438 C 47.171875 20.335938 47.550781 20.5 47.925781 20.445312 L 50.882812 20.003906 L 52.738281 24.484375 L 50.335938 26.261719 C 50.03125 26.492188 49.878906 26.871094 49.945312 27.246094 C 50.324219 29.359375 50.324219 31.511719 49.941406 33.648438 C 49.871094 34.023438 50.023438 34.40625 50.328125 34.632812 L 52.738281 36.417969 Z M 50.882812 40.894531 "/>
</g>
</svg>
