<?xml version="1.0" encoding="UTF-8"?>
<svg xmlns="http://www.w3.org/2000/svg" xmlns:xlink="http://www.w3.org/1999/xlink" width="64px" height="64px" viewBox="0 0 64 64" version="1.1">
<g id="surface1">
<path style=" stroke:none;fill-rule:nonzero;fill:rgb(0%,0%,0%);fill-opacity:1;" d="M 26.585938 22.585938 C 27.367188 21.800781 28.632812 21.800781 29.414062 22.585938 C 30.199219 23.367188 30.199219 24.632812 29.414062 25.414062 L 22.828125 32 L 29.414062 38.585938 C 30.199219 39.367188 30.199219 40.632812 29.414062 41.414062 C 28.632812 42.199219 27.367188 42.199219 26.585938 41.414062 L 18.585938 33.414062 C 18.207031 33.039062 17.996094 32.53125 17.996094 32 C 17.996094 31.46875 18.207031 30.960938 18.585938 30.585938 Z M 37.414062 22.585938 C 36.632812 21.800781 35.367188 21.800781 34.585938 22.585938 C 33.800781 23.367188 33.800781 24.632812 34.585938 25.414062 L 41.171875 32 L 34.585938 38.585938 C 33.800781 39.367188 33.800781 40.632812 34.585938 41.414062 C 35.367188 42.199219 36.632812 42.199219 37.414062 41.414062 L 45.414062 33.414062 C 45.792969 33.039062 46.003906 32.53125 46.003906 32 C 46.003906 31.46875 45.792969 30.960938 45.414062 30.585938 Z M 37.414062 22.585938 "/>
<path style=" stroke:none;fill-rule:nonzero;fill:rgb(0%,0%,0%);fill-opacity:1;" d="M 8 8 C 8 3.582031 11.582031 0 16 0 L 48 0 C 52.417969 0 56 3.582031 56 8 L 56 56 C 56 60.417969 52.417969 64 48 64 L 16 64 C 11.582031 64 8 60.417969 8 56 Z M 48 4 L 16 4 C 13.789062 4 12 5.789062 12 8 L 12 56 C 12 58.210938 13.789062 60 16 60 L 48 60 C 50.210938 60 52 58.210938 52 56 L 52 8 C 52 5.789062 50.210938 4 48 4 "/>
</g>
</svg>
