<?xml version="1.0" encoding="UTF-8"?>
<svg xmlns="http://www.w3.org/2000/svg" xmlns:xlink="http://www.w3.org/1999/xlink" width="42px" height="42px" viewBox="0 0 42 42" version="1.1">
<g id="surface1">
<path style=" stroke:none;fill-rule:evenodd;fill:rgb(0%,0%,0%);fill-opacity:1;" d="M 21 38.5 C 30.664062 38.5 38.5 30.664062 38.5 21 C 38.5 11.335938 30.664062 3.5 21 3.5 C 11.335938 3.5 3.5 11.335938 3.5 21 C 3.5 30.664062 11.335938 38.5 21 38.5 Z M 26.25 17.5 C 26.25 20.398438 23.898438 22.75 21 22.75 C 18.101562 22.75 15.75 20.398438 15.75 17.5 C 15.75 14.601562 18.101562 12.25 21 12.25 C 23.898438 12.25 26.25 14.601562 26.25 17.5 Z M 10.5 29.75 C 12.976562 26.441406 16.867188 24.496094 21 24.5 C 25.132812 24.496094 29.023438 26.441406 31.5 29.75 C 29.023438 33.058594 25.132812 35.003906 21 35 C 16.867188 35.003906 12.976562 33.058594 10.5 29.75 Z M 10.5 29.75 "/>
</g>
</svg>
